<?xml version="1.0" standalone="no"?>
<!DOCTYPE svg PUBLIC "-//W3C//DTD SVG 20010904//EN"
 "http://www.w3.org/TR/2001/REC-SVG-20010904/DTD/svg10.dtd">
<svg version="1.0" xmlns="http://www.w3.org/2000/svg"
 width="830.000000pt" height="512.000000pt" viewBox="0 0 830.000000 512.000000"
 preserveAspectRatio="xMidYMid meet">

<g transform="translate(0.000000,512.000000) scale(0.100000,-0.100000)"
fill="#000000" stroke="none">
<path d="M4033 4555 c-138 -37 -241 -123 -305 -252 -39 -78 -42 -93 -46 -178
-7 -158 39 -269 156 -376 49 -45 119 -86 175 -103 15 -5 17 -22 17 -166 l0
-160 -477 0 c-515 -1 -573 -5 -691 -53 -98 -40 -181 -96 -258 -172 -127 -127
-195 -277 -216 -473 l-11 -107 -73 -24 c-270 -87 -448 -352 -431 -640 10 -163
68 -292 187 -411 80 -81 171 -135 271 -164 l56 -17 7 -64 c8 -80 51 -203 97
-281 19 -32 72 -97 119 -144 92 -92 181 -146 315 -192 l70 -23 1120 -3 c1245
-3 1205 -5 1353 64 242 111 408 332 439 584 l8 64 40 8 c22 5 78 27 125 50
209 104 350 332 350 568 0 150 -62 312 -163 426 -64 71 -180 146 -272 175
l-73 24 -7 85 c-24 289 -175 519 -419 639 -154 76 -140 75 -713 79 l-513 3 0
160 c0 143 2 160 18 166 110 37 225 130 275 221 56 102 72 241 41 357 -62 242
-329 395 -571 330z m223 -253 c132 -68 164 -239 65 -353 -137 -161 -401 -61
-401 152 0 169 184 279 336 201z m1069 -1250 c125 -47 237 -145 293 -257 53
-106 52 -95 52 -861 l0 -713 -23 -74 c-55 -173 -193 -300 -368 -342 -96 -22
-2162 -22 -2258 0 -175 42 -307 164 -366 338 l-25 76 0 713 c0 787 -2 759 63
883 70 131 223 238 372 258 17 2 518 4 1115 3 l1085 -1 60 -23z m-2942 -1158
c-1 -201 -4 -369 -8 -372 -10 -10 -88 34 -137 77 -32 28 -60 68 -85 119 -36
72 -38 81 -38 172 0 88 2 100 34 165 19 38 55 90 80 115 42 41 121 90 146 90
7 0 9 -127 8 -366z m3635 319 c63 -43 103 -91 140 -170 23 -50 27 -71 27 -153
0 -86 -3 -101 -32 -162 -18 -39 -52 -88 -80 -115 -47 -47 -137 -103 -147 -92
-4 4 -9 632 -6 732 0 14 43 -3 98 -40z"/>
<path d="M3207 2550 c-114 -20 -214 -98 -265 -208 -23 -49 -27 -70 -27 -147 0
-110 20 -160 95 -239 74 -78 150 -110 260 -110 73 0 93 4 144 29 76 36 140
100 174 173 23 49 27 70 27 152 0 83 -3 102 -27 151 -49 98 -149 178 -244 194
-75 12 -89 13 -137 5z m139 -274 c28 -28 34 -42 34 -76 0 -34 -6 -48 -33 -75
-19 -19 -45 -37 -59 -40 -57 -14 -138 52 -138 113 0 31 25 77 52 96 12 9 42
16 66 16 37 0 50 -6 78 -34z"/>
<path d="M4977 2549 c-109 -17 -223 -104 -270 -207 -18 -38 -22 -65 -22 -147
0 -90 3 -105 28 -153 80 -151 243 -228 402 -189 89 22 156 66 206 135 79 112
90 244 30 366 -70 142 -217 219 -374 195z m125 -259 c53 -41 61 -126 15 -167
-56 -51 -114 -54 -161 -6 -74 73 -25 193 78 193 28 0 52 -7 68 -20z"/>
<path d="M3758 1444 c-51 -27 -72 -100 -45 -154 7 -13 28 -35 46 -47 34 -23
36 -23 391 -23 355 0 357 0 391 23 57 39 74 98 44 157 -32 61 -24 60 -430 60
-308 -1 -375 -3 -397 -16z"/>
</g>
</svg>
